<svg width="128" height="60" viewBox="0 0 128 60" fill="none" xmlns="http://www.w3.org/2000/svg">
<path fill-rule="evenodd" clip-rule="evenodd" d="M14.5757 7.88794C16.9902 4.90058 19.7253 2.52741 23.5647 0.938232H23.5642C27.3979 -0.648441 32.9808 3.66197 37.7391 9.69149C31.2326 7.44343 21.6435 6.6587 14.5757 7.88794ZM5.13587 22.8611C0.258433 32.2547 -2.41236 42.665 7.24449 50.4037C10.7754 53.2335 18.2625 59.1069 24.7536 59.3805C28.0759 59.5203 29.6887 58.4735 31.0906 56.8264C17.9989 57.514 12.1544 43.2371 7.95245 32.0752C6.7218 28.8059 5.6792 25.8232 5.13587 22.8611Z" fill="white"/>
<path fill-rule="evenodd" clip-rule="evenodd" d="M14.5757 7.88794C16.9902 4.90058 19.7253 2.52741 23.5647 0.938232H23.5642C27.3979 -0.648441 32.9808 3.66197 37.7391 9.69149C31.2326 7.44343 21.6435 6.6587 14.5757 7.88794ZM5.13587 22.8611C0.258433 32.2547 -2.41236 42.665 7.24449 50.4037C10.7754 53.2335 18.2625 59.1069 24.7536 59.3805C28.0759 59.5203 29.6887 58.4735 31.0906 56.8264C17.9989 57.514 12.1544 43.2371 7.95245 32.0752C6.7218 28.8059 5.6792 25.8232 5.13587 22.8611Z" fill="url(#paint0_linear_20_13)"/>
<path fill-rule="evenodd" clip-rule="evenodd" d="M58.1327 45.6941C54.8003 51.7551 51.8884 56.4595 46.3836 59.0618H46.3841C43.3919 60.4762 39.1827 57.2045 35.3527 52.2063C46.3268 48.736 62.0016 36.4659 59.1925 29.6787V29.6792C56.5903 23.3922 51.8858 20.0664 45.8248 16.2604C42.5195 14.1851 38.8724 11.9506 35.1104 10.1803C36.2012 8.61616 37.2891 7.03425 38.3117 5.42319C38.4006 5.28304 38.4879 5.14462 38.574 5.00811C40.2437 2.3608 41.4597 0.432823 45.3427 0.619553C51.0261 0.893124 57.5816 6.7665 60.6731 9.59631C71.824 19.8024 64.2016 34.655 58.1327 45.6941Z" fill="white"/>
<path fill-rule="evenodd" clip-rule="evenodd" d="M58.1327 45.6941C54.8003 51.7551 51.8884 56.4595 46.3836 59.0618H46.3841C43.3919 60.4762 39.1827 57.2045 35.3527 52.2063C46.3268 48.736 62.0016 36.4659 59.1925 29.6787V29.6792C56.5903 23.3922 51.8858 20.0664 45.8248 16.2604C42.5195 14.1851 38.8724 11.9506 35.1104 10.1803C36.2012 8.61616 37.2891 7.03425 38.3117 5.42319C38.4006 5.28304 38.4879 5.14462 38.574 5.00811C40.2437 2.3608 41.4597 0.432823 45.3427 0.619553C51.0261 0.893124 57.5816 6.7665 60.6731 9.59631C71.824 19.8024 64.2016 34.655 58.1327 45.6941Z" fill="url(#paint1_linear_20_13)"/>
<path d="M86.3899 15.7035V17.8275H82.9519V28.3035H80.6479V17.8275H77.2099V15.7035H86.3899ZM89.5883 19.7175C92.1083 19.7175 93.6203 21.3195 93.6203 24.1635V24.5955H87.4103C87.5363 25.8735 88.4723 26.6115 89.7503 26.6115C90.9383 26.6115 91.7663 25.9455 92.2343 25.4775L93.3503 27.0795C92.6123 27.7635 91.4963 28.5735 89.7503 28.5735C87.0323 28.5735 85.2683 26.8095 85.2683 24.1635C85.2683 21.5175 86.9783 19.7175 89.5883 19.7175ZM89.4803 21.4995C88.4183 21.4995 87.6443 22.0215 87.4643 23.1735H91.3883C91.3163 22.1115 90.5603 21.4995 89.4803 21.4995ZM106.574 15.7035L109.706 28.3035H107.276L105.368 20.1675H105.332L102.74 26.4315H101.066L98.4744 20.1675H98.4384L96.5124 28.3035H94.1004L97.2324 15.7035H99.0324L101.876 22.8315H101.912L104.774 15.7035H106.574ZM114.225 28.5735C112.047 28.5735 110.229 26.9895 110.229 24.1455C110.229 21.3015 112.047 19.7175 114.225 19.7175C115.575 19.7175 116.475 20.2935 116.997 21.1575H117.033V19.9875H119.229V28.3035H117.033V27.1335H116.997C116.475 27.9975 115.575 28.5735 114.225 28.5735ZM114.783 26.4855C116.115 26.4855 117.033 25.5495 117.033 24.1455C117.033 22.7415 116.115 21.8055 114.783 21.8055C113.451 21.8055 112.533 22.7415 112.533 24.1455C112.533 25.5495 113.451 26.4855 114.783 26.4855Z" fill="white"/>
<path d="M28.5625 26.2035V28.3275H25.1245V38.8035H22.8205V28.3275H19.3825V26.2035H28.5625Z" fill="white"/>
<path d="M90.4939 45.5685C90.5119 45.8205 90.5119 46.0545 90.5119 46.2885C90.5119 49.8705 88.4959 52.9665 84.2479 52.9665C80.3959 52.9665 77.5879 50.4285 77.5879 46.3965C77.5879 42.5085 80.2339 39.8265 84.3559 39.8265C86.4439 39.8265 88.0459 40.5285 89.2519 41.5005L87.7219 43.4625C86.8399 42.7245 85.6879 42.1845 84.2659 42.1845C81.6919 42.1845 80.1079 44.0025 80.1079 46.3965C80.1079 48.8445 81.7459 50.6085 84.3559 50.6085C86.7859 50.6085 87.9019 49.0605 88.0459 47.6925H84.4279V45.5685H90.4939ZM96.8947 44.1285V46.5045H96.6427C94.8787 46.5045 94.0327 47.2605 94.0327 49.2945V52.6965H91.8367V44.3805H94.0147V46.1445H94.0507C94.4827 44.8485 95.4367 44.1285 96.8047 44.1285H96.8947ZM101.724 44.1105C104.37 44.1105 106.332 45.9285 106.332 48.5385C106.332 51.1485 104.37 52.9665 101.724 52.9665C99.0779 52.9665 97.1159 51.1485 97.1159 48.5385C97.1159 45.9285 99.0779 44.1105 101.724 44.1105ZM101.724 46.1985C100.374 46.1985 99.3839 47.1165 99.3839 48.5385C99.3839 49.9605 100.374 50.8785 101.724 50.8785C103.074 50.8785 104.046 49.9605 104.046 48.5385C104.046 47.1165 103.074 46.1985 101.724 46.1985ZM110.751 52.9665C109.059 52.9665 107.673 51.9405 107.673 49.4745V44.3805H109.941V49.0785C109.941 50.3745 110.553 50.9325 111.507 50.9325C112.605 50.9325 113.343 50.2125 113.343 48.3765V44.3805H115.557V52.6965H113.379V51.4185H113.343C112.839 52.3185 112.047 52.9665 110.751 52.9665ZM117.501 56.2965V44.3805H119.697V45.5505H119.733C120.255 44.6865 121.155 44.1105 122.505 44.1105C124.683 44.1105 126.501 45.6945 126.501 48.5385C126.501 51.3825 124.683 52.9665 122.505 52.9665C121.155 52.9665 120.255 52.3905 119.733 51.5265H119.697V56.2965H117.501ZM121.947 50.8785C123.279 50.8785 124.197 49.9425 124.197 48.5385C124.197 47.1345 123.279 46.1985 121.947 46.1985C120.615 46.1985 119.697 47.1345 119.697 48.5385C119.697 49.9425 120.615 50.8785 121.947 50.8785Z" fill="white"/>
<path d="M44.1673 31.6755C44.1853 31.9275 44.1853 32.1615 44.1853 32.3955C44.1853 35.9775 42.1693 39.0735 37.9213 39.0735C34.0693 39.0735 31.2613 36.5355 31.2613 32.5035C31.2613 28.6155 33.9073 25.9335 38.0293 25.9335C40.1173 25.9335 41.7193 26.6355 42.9253 27.6075L41.3953 29.5695C40.5133 28.8315 39.3613 28.2915 37.9393 28.2915C35.3653 28.2915 33.7813 30.1095 33.7813 32.5035C33.7813 34.9515 35.4193 36.7155 38.0293 36.7155C40.4593 36.7155 41.5753 35.1675 41.7193 33.7995H38.1013V31.6755H44.1673Z" fill="white"/>
<defs>
<linearGradient id="paint0_linear_20_13" x1="3.14532" y1="59.393" x2="41.7396" y2="1.18562" gradientUnits="userSpaceOnUse">
<stop stop-color="#2C1095"/>
<stop offset="0.442558" stop-color="#581ACC"/>
<stop offset="1" stop-color="#DE0DFF"/>
</linearGradient>
<linearGradient id="paint1_linear_20_13" x1="69.784" y1="0.607062" x2="30.815" y2="57.8975" gradientUnits="userSpaceOnUse">
<stop stop-color="#2C1095"/>
<stop offset="0.442558" stop-color="#581ACC"/>
<stop offset="1" stop-color="#DE0DFF"/>
</linearGradient>
</defs>
</svg>
